<mxfile host="Electron" modified="2023-04-19T22:13:57.088Z" agent="Mozilla/5.0 (Windows NT 10.0; Win64; x64) AppleWebKit/537.36 (KHTML, like Gecko) draw.io/21.1.2 Chrome/106.0.5249.199 Electron/21.4.3 Safari/537.36" etag="OhgozFRMjXk06DpKuW-N" version="21.1.2" type="device">
  <diagram name="Page-1" id="UrdrbFP-E4fYHs-XAJP5">
    <mxGraphModel dx="1464" dy="3064" grid="1" gridSize="10" guides="1" tooltips="1" connect="1" arrows="1" fold="1" page="1" pageScale="1" pageWidth="850" pageHeight="1100" math="0" shadow="0">
      <root>
        <mxCell id="0" />
        <mxCell id="1" parent="0" />
        <mxCell id="xefJ0vUl-kySd5qUg40C-1" value="&lt;b style=&quot;&quot;&gt;&lt;font color=&quot;#0000ff&quot;&gt;&amp;nbsp;Region US east9(N.VIrginia)&lt;/font&gt;&lt;/b&gt;" style="points=[[0,0],[0.25,0],[0.5,0],[0.75,0],[1,0],[1,0.25],[1,0.5],[1,0.75],[1,1],[0.75,1],[0.5,1],[0.25,1],[0,1],[0,0.75],[0,0.5],[0,0.25]];outlineConnect=0;gradientColor=none;html=1;whiteSpace=wrap;fontSize=12;fontStyle=0;container=1;pointerEvents=0;collapsible=0;recursiveResize=0;shape=mxgraph.aws4.group;grIcon=mxgraph.aws4.group_region;strokeColor=#147EBA;fillColor=none;verticalAlign=top;align=left;spacingLeft=30;fontColor=#147EBA;dashed=1;movable=1;resizable=1;rotatable=1;deletable=1;editable=1;locked=0;connectable=1;" parent="1" vertex="1">
          <mxGeometry x="120" y="-1110" width="900" height="830" as="geometry" />
        </mxCell>
        <mxCell id="HFCApeW-xEKFulRT1dY0-1" value="&lt;b&gt;&lt;font color=&quot;#cc0000&quot;&gt;project VPC 10.0.0.0/16&lt;/font&gt;&lt;/b&gt;" style="points=[[0,0],[0.25,0],[0.5,0],[0.75,0],[1,0],[1,0.25],[1,0.5],[1,0.75],[1,1],[0.75,1],[0.5,1],[0.25,1],[0,1],[0,0.75],[0,0.5],[0,0.25]];outlineConnect=0;gradientColor=none;html=1;whiteSpace=wrap;fontSize=12;fontStyle=0;container=1;pointerEvents=0;collapsible=0;recursiveResize=0;shape=mxgraph.aws4.group;grIcon=mxgraph.aws4.group_vpc;strokeColor=#248814;fillColor=none;verticalAlign=top;align=left;spacingLeft=30;fontColor=#AAB7B8;" parent="xefJ0vUl-kySd5qUg40C-1" vertex="1">
          <mxGeometry x="90" y="60" width="760" height="690" as="geometry" />
        </mxCell>
        <mxCell id="HFCApeW-xEKFulRT1dY0-2" value="&lt;b&gt;&lt;font color=&quot;#0000ff&quot;&gt;Availability zone 1 US east 1a&lt;/font&gt;&lt;/b&gt;" style="sketch=0;outlineConnect=0;gradientColor=none;html=1;whiteSpace=wrap;fontSize=12;fontStyle=0;shape=mxgraph.aws4.group;grIcon=mxgraph.aws4.group_availability_zone;strokeColor=#545B64;fillColor=none;verticalAlign=top;align=left;spacingLeft=30;fontColor=#545B64;dashed=1;movable=0;resizable=0;rotatable=0;deletable=0;editable=0;locked=1;connectable=0;" parent="HFCApeW-xEKFulRT1dY0-1" vertex="1">
          <mxGeometry x="40" y="70" width="670" height="200" as="geometry" />
        </mxCell>
        <mxCell id="HFCApeW-xEKFulRT1dY0-3" value="&lt;b&gt;&lt;font color=&quot;#0000ff&quot;&gt;Availability zone 2 US 1b&lt;/font&gt;&lt;/b&gt;" style="sketch=0;outlineConnect=0;gradientColor=none;html=1;whiteSpace=wrap;fontSize=12;fontStyle=0;shape=mxgraph.aws4.group;grIcon=mxgraph.aws4.group_availability_zone;strokeColor=#545B64;fillColor=none;verticalAlign=top;align=left;spacingLeft=30;fontColor=#545B64;dashed=1;" parent="HFCApeW-xEKFulRT1dY0-1" vertex="1">
          <mxGeometry x="45" y="410" width="670" height="230" as="geometry" />
        </mxCell>
        <mxCell id="HFCApeW-xEKFulRT1dY0-4" value="public subnet AZ1 10.0.0.0/24" style="points=[[0,0],[0.25,0],[0.5,0],[0.75,0],[1,0],[1,0.25],[1,0.5],[1,0.75],[1,1],[0.75,1],[0.5,1],[0.25,1],[0,1],[0,0.75],[0,0.5],[0,0.25]];outlineConnect=0;gradientColor=none;html=1;whiteSpace=wrap;fontSize=12;fontStyle=0;container=1;pointerEvents=0;collapsible=0;recursiveResize=0;shape=mxgraph.aws4.group;grIcon=mxgraph.aws4.group_security_group;grStroke=0;strokeColor=#248814;fillColor=#E9F3E6;verticalAlign=top;align=left;spacingLeft=30;fontColor=#248814;dashed=0;" parent="HFCApeW-xEKFulRT1dY0-1" vertex="1">
          <mxGeometry x="80" y="110" width="120" height="120" as="geometry" />
        </mxCell>
        <mxCell id="HFCApeW-xEKFulRT1dY0-5" value="Public subnet AZ2 10.0.1.0/24" style="points=[[0,0],[0.25,0],[0.5,0],[0.75,0],[1,0],[1,0.25],[1,0.5],[1,0.75],[1,1],[0.75,1],[0.5,1],[0.25,1],[0,1],[0,0.75],[0,0.5],[0,0.25]];outlineConnect=0;gradientColor=none;html=1;whiteSpace=wrap;fontSize=12;fontStyle=0;container=1;pointerEvents=0;collapsible=0;recursiveResize=0;shape=mxgraph.aws4.group;grIcon=mxgraph.aws4.group_security_group;grStroke=0;strokeColor=#248814;fillColor=#E9F3E6;verticalAlign=top;align=left;spacingLeft=30;fontColor=#248814;dashed=0;" parent="HFCApeW-xEKFulRT1dY0-1" vertex="1">
          <mxGeometry x="80" y="440" width="120" height="150" as="geometry" />
        </mxCell>
        <mxCell id="HFCApeW-xEKFulRT1dY0-29" style="edgeStyle=none;rounded=0;orthogonalLoop=1;jettySize=auto;html=1;entryX=0.571;entryY=0.143;entryDx=0;entryDy=0;entryPerimeter=0;" parent="HFCApeW-xEKFulRT1dY0-1" source="HFCApeW-xEKFulRT1dY0-6" target="HFCApeW-xEKFulRT1dY0-12" edge="1">
          <mxGeometry relative="1" as="geometry" />
        </mxCell>
        <mxCell id="HFCApeW-xEKFulRT1dY0-6" value="&lt;font color=&quot;#0000cc&quot;&gt;Private APP subnet AZ1 10.0.2.0/24&lt;/font&gt;" style="points=[[0,0],[0.25,0],[0.5,0],[0.75,0],[1,0],[1,0.25],[1,0.5],[1,0.75],[1,1],[0.75,1],[0.5,1],[0.25,1],[0,1],[0,0.75],[0,0.5],[0,0.25]];outlineConnect=0;gradientColor=none;html=1;whiteSpace=wrap;fontSize=12;fontStyle=0;container=1;pointerEvents=0;collapsible=0;recursiveResize=0;shape=mxgraph.aws4.group;grIcon=mxgraph.aws4.group_security_group;grStroke=0;strokeColor=#147EBA;fillColor=#E6F2F8;verticalAlign=top;align=left;spacingLeft=30;fontColor=#147EBA;dashed=0;" parent="HFCApeW-xEKFulRT1dY0-1" vertex="1">
          <mxGeometry x="280" y="110" width="140" height="120" as="geometry" />
        </mxCell>
        <mxCell id="HFCApeW-xEKFulRT1dY0-7" value="Pirivate data subnet AZ1 10.0.4.0/24" style="points=[[0,0],[0.25,0],[0.5,0],[0.75,0],[1,0],[1,0.25],[1,0.5],[1,0.75],[1,1],[0.75,1],[0.5,1],[0.25,1],[0,1],[0,0.75],[0,0.5],[0,0.25]];outlineConnect=0;gradientColor=none;html=1;whiteSpace=wrap;fontSize=12;fontStyle=0;container=1;pointerEvents=0;collapsible=0;recursiveResize=0;shape=mxgraph.aws4.group;grIcon=mxgraph.aws4.group_security_group;grStroke=0;strokeColor=#147EBA;fillColor=#E6F2F8;verticalAlign=top;align=left;spacingLeft=30;fontColor=#147EBA;dashed=0;" parent="HFCApeW-xEKFulRT1dY0-1" vertex="1">
          <mxGeometry x="480" y="110" width="150" height="120" as="geometry" />
        </mxCell>
        <mxCell id="HFCApeW-xEKFulRT1dY0-8" value="&lt;font color=&quot;#000099&quot;&gt;Private app subnet AZ2 10.0.3.0/24&lt;/font&gt;" style="points=[[0,0],[0.25,0],[0.5,0],[0.75,0],[1,0],[1,0.25],[1,0.5],[1,0.75],[1,1],[0.75,1],[0.5,1],[0.25,1],[0,1],[0,0.75],[0,0.5],[0,0.25]];outlineConnect=0;gradientColor=none;html=1;whiteSpace=wrap;fontSize=12;fontStyle=0;container=1;pointerEvents=0;collapsible=0;recursiveResize=0;shape=mxgraph.aws4.group;grIcon=mxgraph.aws4.group_security_group;grStroke=0;strokeColor=#147EBA;fillColor=#E6F2F8;verticalAlign=top;align=left;spacingLeft=30;fontColor=#147EBA;dashed=0;" parent="HFCApeW-xEKFulRT1dY0-1" vertex="1">
          <mxGeometry x="280" y="430" width="140" height="160" as="geometry" />
        </mxCell>
        <mxCell id="HFCApeW-xEKFulRT1dY0-9" value="Private subnet data AZ2 10.0.5.0/24" style="points=[[0,0],[0.25,0],[0.5,0],[0.75,0],[1,0],[1,0.25],[1,0.5],[1,0.75],[1,1],[0.75,1],[0.5,1],[0.25,1],[0,1],[0,0.75],[0,0.5],[0,0.25]];outlineConnect=0;gradientColor=none;html=1;whiteSpace=wrap;fontSize=12;fontStyle=0;container=1;pointerEvents=0;collapsible=0;recursiveResize=0;shape=mxgraph.aws4.group;grIcon=mxgraph.aws4.group_security_group;grStroke=0;strokeColor=#147EBA;fillColor=#E6F2F8;verticalAlign=top;align=left;spacingLeft=30;fontColor=#147EBA;dashed=0;" parent="HFCApeW-xEKFulRT1dY0-1" vertex="1">
          <mxGeometry x="480" y="435" width="150" height="160" as="geometry" />
        </mxCell>
        <mxCell id="HFCApeW-xEKFulRT1dY0-10" value="" style="sketch=0;outlineConnect=0;fontColor=#232F3E;gradientColor=none;fillColor=#4D27AA;strokeColor=none;dashed=0;verticalLabelPosition=bottom;verticalAlign=top;align=center;html=1;fontSize=12;fontStyle=0;aspect=fixed;pointerEvents=1;shape=mxgraph.aws4.internet_gateway;" parent="HFCApeW-xEKFulRT1dY0-1" vertex="1">
          <mxGeometry x="-38" y="291" width="78" height="78" as="geometry" />
        </mxCell>
        <mxCell id="HFCApeW-xEKFulRT1dY0-49" value="" style="edgeStyle=none;rounded=0;sketch=1;hachureGap=4;jiggle=2;curveFitting=1;orthogonalLoop=1;jettySize=auto;html=1;fontFamily=Architects Daughter;fontSource=https%3A%2F%2Ffonts.googleapis.com%2Fcss%3Ffamily%3DArchitects%2BDaughter;fontSize=16;" parent="HFCApeW-xEKFulRT1dY0-1" source="HFCApeW-xEKFulRT1dY0-11" target="HFCApeW-xEKFulRT1dY0-10" edge="1">
          <mxGeometry relative="1" as="geometry" />
        </mxCell>
        <mxCell id="HFCApeW-xEKFulRT1dY0-11" value="" style="whiteSpace=wrap;html=1;aspect=fixed;fillColor=#6a00ff;strokeColor=#3700CC;fontColor=#ffffff;" parent="HFCApeW-xEKFulRT1dY0-1" vertex="1">
          <mxGeometry x="120" y="295.5" width="69" height="69" as="geometry" />
        </mxCell>
        <mxCell id="S6pzZZzFYvkRR7KDU0X5-4" style="edgeStyle=orthogonalEdgeStyle;rounded=0;sketch=1;hachureGap=4;jiggle=2;curveFitting=1;orthogonalLoop=1;jettySize=auto;html=1;fontFamily=Architects Daughter;fontSource=https%3A%2F%2Ffonts.googleapis.com%2Fcss%3Ffamily%3DArchitects%2BDaughter;fontSize=16;" edge="1" parent="HFCApeW-xEKFulRT1dY0-1" source="HFCApeW-xEKFulRT1dY0-12" target="HFCApeW-xEKFulRT1dY0-8">
          <mxGeometry relative="1" as="geometry" />
        </mxCell>
        <mxCell id="HFCApeW-xEKFulRT1dY0-12" value="" style="whiteSpace=wrap;html=1;aspect=fixed;fillColor=#cdeb8b;strokeColor=default;" parent="HFCApeW-xEKFulRT1dY0-1" vertex="1">
          <mxGeometry x="310" y="290" width="70" height="70" as="geometry" />
        </mxCell>
        <mxCell id="HFCApeW-xEKFulRT1dY0-22" style="edgeStyle=none;rounded=0;orthogonalLoop=1;jettySize=auto;html=1;entryX=0.5;entryY=1;entryDx=0;entryDy=0;" parent="HFCApeW-xEKFulRT1dY0-1" source="HFCApeW-xEKFulRT1dY0-12" target="HFCApeW-xEKFulRT1dY0-12" edge="1">
          <mxGeometry relative="1" as="geometry" />
        </mxCell>
        <mxCell id="HFCApeW-xEKFulRT1dY0-48" style="edgeStyle=none;rounded=0;sketch=1;hachureGap=4;jiggle=2;curveFitting=1;orthogonalLoop=1;jettySize=auto;html=1;fontFamily=Architects Daughter;fontSource=https%3A%2F%2Ffonts.googleapis.com%2Fcss%3Ffamily%3DArchitects%2BDaughter;fontSize=16;entryX=0.45;entryY=1;entryDx=0;entryDy=0;entryPerimeter=0;" parent="1" source="HFCApeW-xEKFulRT1dY0-47" target="HFCApeW-xEKFulRT1dY0-47" edge="1">
          <mxGeometry relative="1" as="geometry">
            <mxPoint x="410" y="-1150" as="targetPoint" />
          </mxGeometry>
        </mxCell>
        <mxCell id="HFCApeW-xEKFulRT1dY0-47" value="" style="shape=waypoint;sketch=0;size=6;pointerEvents=1;points=[];fillColor=none;resizable=0;rotatable=0;perimeter=centerPerimeter;snapToPoint=1;hachureGap=4;jiggle=2;curveFitting=1;fontFamily=Architects Daughter;fontSource=https%3A%2F%2Ffonts.googleapis.com%2Fcss%3Ffamily%3DArchitects%2BDaughter;fontSize=20;" parent="1" vertex="1">
          <mxGeometry x="390" y="-1230" width="20" height="20" as="geometry" />
        </mxCell>
      </root>
    </mxGraphModel>
  </diagram>
</mxfile>
